<mxfile host="app.diagrams.net" modified="2024-06-14T12:56:22.716Z" agent="Mozilla/5.0 (Windows NT 10.0; Win64; x64) AppleWebKit/537.36 (KHTML, like Gecko) Chrome/125.0.0.0 Safari/537.36" version="24.4.13" etag="_higJN9-kZ7nI-9N_Tjp" type="github">
  <diagram name="Page-1" id="Q4wwILjILHivDsmChu13">
    <mxGraphModel>
      <root>
        <mxCell id="0" />
        <mxCell id="1" parent="0" />
      </root>
    </mxGraphModel>
  </diagram>
</mxfile>
